<?xml version="1.0" standalone="no"?>
<!DOCTYPE svg PUBLIC "-//W3C//DTD SVG 20010904//EN"
 "http://www.w3.org/TR/2001/REC-SVG-20010904/DTD/svg10.dtd">
<svg version="1.0" xmlns="http://www.w3.org/2000/svg"
 width="260.000000pt" height="260.000000pt" viewBox="0 0 260.000000 260.000000"
 preserveAspectRatio="xMidYMid meet">
<metadata>
Created by potrace 1.14, written by Peter Selinger 2001-2017
</metadata>
<g transform="translate(0.000000,260.000000) scale(0.100000,-0.100000)"
fill="#000000" stroke="none">
<path d="M2165 2023 c-27 -87 -100 -309 -163 -493 -63 -184 -132 -390 -155
-457 -23 -68 -44 -123 -47 -123 -3 0 -30 81 -59 179 l-53 179 -149 1 c-82 1
-149 0 -149 -3 0 -5 192 -659 237 -805 l25 -84 135 5 c74 3 138 9 142 14 11
11 372 1100 435 1309 55 183 116 405 116 422 0 10 -33 13 -133 13 l-133 0 -49
-157z"/>
<path d="M1230 1864 c0 -12 98 -365 102 -369 7 -6 298 -13 298 -7 0 4 -23 86
-51 183 l-51 176 -87 7 c-47 3 -114 9 -148 12 -35 4 -63 3 -63 -2z"/>
<path d="M114 1769 c3 -24 6 -99 7 -165 0 -67 5 -127 9 -134 6 -10 92 -11 432
-5 232 4 437 8 453 10 17 2 43 3 59 4 l29 1 -6 148 c-4 81 -7 155 -7 165 0 16
-7 18 -62 12 -87 -8 -779 -8 -856 1 l-63 6 5 -43z"/>
<path d="M698 1305 c-2 -2 -131 -5 -287 -7 l-283 -3 6 -90 c3 -49 8 -196 12
-325 4 -129 8 -246 10 -260 1 -14 3 -61 3 -104 l1 -79 73 7 c288 28 399 37
517 42 74 3 141 7 148 10 13 4 15 135 4 272 l-4 52 -72 0 c-39 0 -143 -5 -230
-11 -87 -5 -159 -9 -161 -7 -1 2 -5 37 -9 79 -6 74 -5 77 17 82 12 3 117 9
232 12 116 4 213 9 218 12 4 2 5 21 3 41 -3 20 -5 92 -5 160 l-1 123 -95 -2
c-52 -1 -96 -3 -97 -4z"/>
</g>
</svg>
